<?xml version="1.0" encoding="utf-8"?>
<svg version="1.1" xmlns="http://www.w3.org/2000/svg" xmlns:xlink="http://www.w3.org/1999/xlink" viewBox="0 0 144 144"
  style="enable-background:new 0 0 144 144;" xml:space="preserve">
  <g fill="#E8E8E8">
    <path d="M138.9,6.8l-1.6-1.6c-2.8-2.8-7.5-2.8-10.3,0L5.1,126.9c-2.8,2.8-2.8,7.5,0,10.3l1.6,1.6
		c2.8,2.8,7.5,2.8,10.3,0L138.9,17.1C141.7,14.2,141.7,9.6,138.9,6.8z M28.2,120.1c-1.2,1.2-3.1,1.2-4.2,0s-1.2-3.1,0-4.2
		c1.2-1.2,3.1-1.2,4.2,0S29.4,118.9,28.2,120.1z M39.5,108.7c-1.2,1.2-3.1,1.2-4.2,0s-1.2-3.1,0-4.2s3.1-1.2,4.2,0
		S40.7,107.6,39.5,108.7z M50.8,97.4c-1.2,1.2-3.1,1.2-4.2,0c-1.2-1.2-1.2-3.1,0-4.2c1.2-1.2,3.1-1.2,4.2,0S52,96.3,50.8,97.4z
		 M62.1,86.1c-1.2,1.2-3.1,1.2-4.2,0c-1.2-1.2-1.2-3.1,0-4.2s3.1-1.2,4.2,0S63.3,84.9,62.1,86.1z M73.4,74.8c-1.2,1.2-3.1,1.2-4.2,0
		s-1.2-3.1,0-4.2s3.1-1.2,4.2,0C74.6,71.7,74.6,73.6,73.4,74.8z M84.7,63.5c-1.2,1.2-3.1,1.2-4.2,0s-1.2-3.1,0-4.2s3.1-1.2,4.2,0
		S85.9,62.3,84.7,63.5z M96.1,52.2c-1.2,1.2-3.1,1.2-4.2,0s-1.2-3.1,0-4.2s3.1-1.2,4.2,0S97.2,51,96.1,52.2z M121.5,31.2L121.5,31.2
		l-11.2,10.8l-0.4-0.4l9.8-12.3l-5.4-5.4l-12.1,10l-0.4-0.4L113,22.8l0,0l2.8-2.8l8.5,8.5L121.5,31.2z" />
  </g>
</svg>
