<?xml version="1.0" encoding="utf-8"?>
<!-- Generator: Adobe Illustrator 25.0.1, SVG Export Plug-In . SVG Version: 6.00 Build 0)  -->
<svg version="1.1" id="Слой_2" xmlns="http://www.w3.org/2000/svg" xmlns:xlink="http://www.w3.org/1999/xlink" x="0px"
  y="0px" viewBox="0 0 256 256" style="enable-background:new 0 0 256 256;" xml:space="preserve">
  <style type="text/css">
    .st0 {
      fill: #E8E8E8;
    }
  </style>
  <g>
    <g>
      <path class="st0" d="M95.5,163.3L70,188.8c9.6,9.1,21.3,16,34.4,19.9l9.3-34.8C106.8,171.7,100.6,168,95.5,163.3z" />
    </g>
    <g>
      <path class="st0" d="M92.7,95.5L67.2,70c-9.1,9.6-16,21.3-19.9,34.4l34.8,9.3C84.3,106.8,88,100.6,92.7,95.5z" />
    </g>
    <g>
      <path class="st0"
        d="M113.7,82.2l-9.3-34.8C91.3,51.2,79.6,58.1,70,67.2l25.5,25.5C100.6,88,106.8,84.3,113.7,82.2z" />
    </g>
    <g>
      <path class="st0"
        d="M173.8,113.7l34.8-9.3c-3.8-13.1-10.7-24.8-19.9-34.4l-25.5,25.5C168,100.6,171.7,106.8,173.8,113.7z" />
    </g>
    <g>
      <path class="st0" d="M160.5,92.7L186,67.2c-9.6-9.1-21.3-16-34.4-19.9l-9.3,34.8C149.2,84.3,155.4,88,160.5,92.7z" />
    </g>
    <g>
      <path class="st0"
        d="M82.2,142.3l-34.8,9.3c3.8,13.1,10.7,24.8,19.9,34.4l25.5-25.5C88,155.4,84.3,149.2,82.2,142.3z" />
    </g>
    <g>
      <path class="st0" d="M128,80c3.6,0,7.1,0.4,10.5,1.2l9.3-34.8c-6.4-1.5-13-2.4-19.9-2.4c-6.8,0-13.5,0.8-19.9,2.4l9.3,34.8
			C120.9,80.4,124.4,80,128,80z" />
    </g>
    <g>
      <path class="st0" d="M80,128c0-3.6,0.4-7.1,1.2-10.5l-34.8-9.3c-1.5,6.4-2.4,13-2.4,19.9c0,6.8,0.8,13.5,2.4,19.9l34.8-9.3
			C80.4,135.1,80,131.6,80,128z" />
    </g>
    <g>
      <path class="st0" d="M128,176c-3.6,0-7.1-0.4-10.5-1.2l-9.3,34.8c6.4,1.5,13,2.4,19.9,2.4c6.8,0,13.5-0.8,19.9-2.4l-9.3-34.8
			C135.1,175.6,131.6,176,128,176z" />
    </g>
    <g>
      <path class="st0" d="M209.6,108.1l-34.8,9.3c0.8,3.4,1.2,6.9,1.2,10.5c0,3.6-0.4,7.1-1.2,10.5l34.8,9.3c1.5-6.4,2.4-13,2.4-19.9
			C212,121.2,211.2,114.5,209.6,108.1z" />
    </g>
    <g>
      <path class="st0" d="M173.8,142.3c-2.1,6.9-5.8,13.1-10.5,18.2l25.5,25.5c9.1-9.6,16-21.3,19.9-34.4L173.8,142.3z" />
    </g>
    <g>
      <path class="st0"
        d="M160.5,163.3c-5.2,4.8-11.4,8.4-18.2,10.5l9.3,34.8c13.1-3.8,24.8-10.7,34.4-19.9L160.5,163.3z" />
    </g>
  </g>
  <g>
    <g>
      <path class="st0"
        d="M67.2,191.6l-28.3,28.3c15,14.5,33.4,25.4,54,31.2l10.4-38.7C89.6,208.5,77.3,201.2,67.2,191.6z" />
    </g>
    <g>
      <path class="st0" d="M64.4,67.2L36.1,38.9c-14.5,15-25.4,33.4-31.2,54l38.7,10.4C47.5,89.6,54.8,77.3,64.4,67.2z" />
    </g>
    <g>
      <path class="st0"
        d="M103.3,43.5L92.9,4.9c-20.6,5.9-39.1,16.7-54,31.2l28.3,28.3C77.3,54.8,89.6,47.5,103.3,43.5z" />
    </g>
    <g>
      <path class="st0"
        d="M212.5,103.3l38.7-10.4c-5.9-20.6-16.7-39.1-31.2-54l-28.3,28.3C201.2,77.3,208.5,89.6,212.5,103.3z" />
    </g>
    <g>
      <path class="st0"
        d="M188.8,64.4l28.3-28.3c-15-14.5-33.4-25.4-54-31.2l-10.4,38.7C166.4,47.5,178.7,54.8,188.8,64.4z" />
    </g>
    <g>
      <path class="st0"
        d="M43.5,152.7L4.9,163.1c5.9,20.6,16.7,39.1,31.2,54l28.3-28.3C54.8,178.7,47.5,166.4,43.5,152.7z" />
    </g>
    <g>
      <path class="st0" d="M128,40c7.2,0,14.2,0.9,20.8,2.5l10.4-38.7C149.2,1.3,138.8,0,128,0c-10.8,0-21.2,1.3-31.2,3.8l10.4,38.7
			C113.8,40.9,120.8,40,128,40z" />
    </g>
    <g>
      <path class="st0" d="M40,128c0-7.2,0.9-14.2,2.5-20.8L3.8,96.8C1.3,106.8,0,117.2,0,128c0,10.8,1.3,21.2,3.8,31.2l38.7-10.4
			C40.9,142.2,40,135.2,40,128z" />
    </g>
    <g>
      <path class="st0" d="M128,216c-7.2,0-14.2-0.9-20.8-2.5l-10.4,38.7c10,2.5,20.4,3.8,31.2,3.8c10.8,0,21.2-1.3,31.2-3.8l-10.4-38.7
			C142.2,215.1,135.2,216,128,216z" />
    </g>
    <g>
      <path class="st0" d="M252.2,96.8l-38.7,10.4c1.6,6.7,2.5,13.7,2.5,20.8c0,7.2-0.9,14.2-2.5,20.8l38.7,10.4
			c2.5-10,3.8-20.4,3.8-31.2C256,117.2,254.7,106.8,252.2,96.8z" />
    </g>
    <g>
      <path class="st0" d="M212.5,152.7c-4,13.7-11.2,26-20.9,36.1l28.3,28.3c14.5-15,25.4-33.4,31.2-54L212.5,152.7z" />
    </g>
    <g>
      <path class="st0"
        d="M188.8,191.6c-10.1,9.6-22.4,16.9-36.1,20.9l10.4,38.7c20.6-5.9,39.1-16.7,54-31.2L188.8,191.6z" />
    </g>
  </g>
</svg>
