<?xml version="1.0" encoding="utf-8"?>
<svg version="1.1" xmlns="http://www.w3.org/2000/svg" xmlns:xlink="http://www.w3.org/1999/xlink" x="0px" y="0px"
  viewBox="0 0 512 512" style="enable-background:new 0 0 512 512;" xml:space="preserve">
  <g fill="#E8E8E8">
    <path d="M405.8,36.1C368,12.5,316.2,0,256,0S144,12.5,106.2,36.1C63.1,63,40.3,103,40.3,151.8
		c0,47.7,29.1,133.8,72.5,214.3c21.9,40.7,45.2,75.2,67.3,99.9c27.3,30.5,52.8,46,75.8,46s48.6-15.5,75.9-46
		c22.1-24.7,45.4-59.3,67.3-99.9c43.4-80.5,72.5-166.6,72.5-214.3C471.7,103,448.9,63,405.8,36.1z M231.7,404.6
		c-15.3,0-23.6-14.4-16.2-48c8.8-38.4,19.5-79.7,26.4-111.8c3.2-13.9,2.8-18.2-1.4-18.2c-4.6,0-15.3,6.7-25.5,15.8l-7-15.4
		c31.1-31.2,64-47,81.1-47c15.8,0,19.5,14.9,9.3,59.5c-7,29.8-17.2,71-24.1,100.8c-3.2,12-3.2,18.7,0.5,18.7
		c3.7,0,15.3-6.7,30.1-22.6l7.9,15.4C283.6,388.3,250.7,404.6,231.7,404.6z M286.4,149.3c-16.7,0-28.3-11-28.3-29.8
		c0-16.3,12.5-37,36.2-37c18.1,0,26.4,13.4,26.4,29.3C320.7,131,306.8,149.3,286.4,149.3z" />
  </g>
</svg>
