<?xml version="1.0" encoding="utf-8"?>
<!-- Generator: Adobe Illustrator 25.0.1, SVG Export Plug-In . SVG Version: 6.00 Build 0)  -->
<svg version="1.1" id="main" xmlns="http://www.w3.org/2000/svg" xmlns:xlink="http://www.w3.org/1999/xlink" x="0px"
  y="0px" viewBox="0 0 512 512" style="enable-background:new 0 0 512 512;" xml:space="preserve">
  <style type="text/css">
    .st0 {
      fill: #E8E8E8;
    }

    .st1 {
      fill: none;
      stroke: #E8E8E8;
      stroke-width: 4;
      stroke-miterlimit: 10;
    }

    .st2 {
      stroke: #E8E8E8;
      stroke-width: 48;
      stroke-miterlimit: 10;
    }

    .st3 {
      fill: none;
      stroke: #E8E8E8;
      stroke-width: 12;
      stroke-miterlimit: 10;
    }
  </style>
  <g id="block_x5F_flute_1_">
    <polygon class="st0" points="445.4,312 457,281.4 442.2,275.7 428.5,312 	" />
    <path id="head_1_" class="st0" d="M442.2,275.7c0,0,0.4-1.9-0.3-2.6c-0.7-0.7,0.1-1.5,0.1-1.5s1.6-0.1,2.9-4c1.3-3.9,1.5-5,1.7-6.7
		s2.4-9.5,3.2-12c0.8-2.6,3.1-11.4,6.6-17.3c3.2-5.3,4.8-9.4,4.8-9.4l2,0.7c0,0-1.9,13.5,8,18.9c0.5,0.3,0.3,0.7,0.1,1.2l-12,32
		c0,0,0.9,1.9-1.2,3.7l-1.2,2.9" />
  </g>
  <g id="sax">
    <path class="st0" d="M415.4,117l25.9-9.9l0,0l4.9,12.8c0.2,0.7-0.1,1.4-0.7,1.7l-24.7,9.5c-0.7,0.3-1.4-0.1-1.7-0.7l-4.5-11.6
		C414.4,118,414.7,117.2,415.4,117C415.3,117,415.3,117,415.4,117z" />
    <path class="st0" d="M440.8,107.4l-12.5,19.1c-0.2,0.4-0.1,0.8,0.2,1.1c0.2,0.2,0.5,0.2,0.8,0l35.3-17.9c0.4-0.2,0.6-0.6,0.4-1
		c-0.1-0.3-0.4-0.4-0.7-0.4l-22.8-1.1C441.2,107,440.9,107.1,440.8,107.4z" />
    <path class="st0" d="M430.7,122.9L430.7,122.9c1.3-0.5,2.7,0.1,3.2,1.4l2.2,5.6c0.5,1.3-0.1,2.7-1.4,3.2l0,0
		c-1.3,0.5-2.7-0.1-3.2-1.4l-2.2-5.6C428.8,124.8,429.4,123.4,430.7,122.9z" />
    <path class="st0" d="M441,118.9L441,118.9c1.3-0.5,2.7,0.1,3.2,1.4l2.2,5.6c0.5,1.3-0.1,2.7-1.4,3.2l0,0c-1.3,0.5-2.7-0.1-3.2-1.4
		l-2.2-5.6C439.1,120.9,439.7,119.4,441,118.9z" />
    <g>
      <path class="st0" d="M342.2,354.7h-13.1c0,0.1-0.1,0.1-0.1,0.2c1,0.3,1.6,0.5,1.6,0.5s4,2,12.4,1.4c-0.2-0.4-0.3-0.7-0.5-1.1
			C342.4,355.3,342.3,355,342.2,354.7z" />
      <path class="st0"
        d="M293.6,278.4l1.4,3.7l0.1,0.4c5.9-4.1,14-2.6,18.1,3.3s2.6,14-3.3,18.1c-3.4,2.3-7.7,2.9-11.6,1.6l0.9,6.4
			h2.3c0.5-0.3,1-0.5,1.5-0.7c3.5-1.3,7.2-0.9,10.2,0.7h26.6c-3-5.3-3.6-17.7-3.6-17.7s-0.7-15.8,0.4-27c1.1-11.1-3.8-21.1-3.8-21.1
			c-1.8-3.4-1.7-7.4,0.2-10.8c3.2-5.5-1.2-6-1.2-6s-2.2-0.2-7.5,2.9c-9,5.1-17.5,10.9-25.5,17.3c-9.8,8-18.9,23.3-18.9,23.3
			s-1.2,2.6-0.4,4.5c0.5,1.9,1.8,3.4,3.7,4c2.6,1.2,6-1.2,6-1.2c0.7-0.8,1.5-1.5,2.4-2C292.3,277.8,293.2,277.5,293.6,278.4z" />
      <path class="st0" d="M416.5,120.8l-41,18.9c0,0-9,4.5-11.1,7.5c-2.1,2.9-3.8,6.8-5.6,16.1c-0.1,0.6-0.2,1.4-0.3,2.5
			c5.4-1.1,10.7,2.5,11.8,7.9c1.1,5.4-2.5,10.7-7.9,11.8c-1.6,0.3-3.2,0.2-4.7-0.2c0,1.4-0.1,2.8-0.1,4.3c5.2-1.8,10.9,1,12.7,6.2
			c1.8,5.2-1,10.9-6.3,12.7c-2.2,0.7-4.6,0.7-6.7-0.1c0,2,0,4-0.1,5.9c5.7-2.1,12,0.9,14.1,6.6c2.1,5.7-0.9,12-6.6,14.1
			c-2.5,0.9-5.2,0.9-7.6-0.1l0,7.3c5.7-2.1,12.1,0.7,14.2,6.4c2.1,5.7-0.7,12-6.4,14.2c-2.4,0.9-5.1,0.9-7.6,0.1l0.7,43.3
			c0.1,2-0.3,4-1.3,5.7H389l-2.9-35.8l-3.9-80c0,0-3.9-29.6,3.2-42s33.8-23.7,33.8-23.7l1.5-1.7L416.5,120.8z" />
    </g>
    <ellipse class="st0" cx="360.3" cy="175.6" rx="8" ry="8" />
    <ellipse class="st0" cx="360.7" cy="199" rx="8" ry="8" />
    <ellipse class="st0" cx="361.6" cy="225" rx="8.5" ry="8.5" />
    <ellipse class="st0" cx="360.9" cy="252.6" rx="9" ry="9" />
    <ellipse class="st0" cx="302.5" cy="293.2" rx="11" ry="11" />
  </g>
  <g id="keyboard">
    <g id="keys">
      <g id="octave_1_">
        <rect x="200" y="190.8" class="st0" width="48" height="8" />
        <rect x="200" y="207" class="st0" width="48" height="8" />
        <rect x="200" y="231" class="st0" width="48" height="8" />
        <rect x="200" y="247.2" class="st0" width="48" height="8" />
        <rect x="200" y="263" class="st0" width="48" height="8" />
      </g>
      <g id="octave">
        <rect x="200" y="94.3" class="st0" width="48" height="8" />
        <rect x="200" y="110.6" class="st0" width="48" height="8" />
        <rect x="200" y="134.6" class="st0" width="48" height="8" />
        <rect x="200" y="150.8" class="st0" width="48" height="8" />
        <rect x="200" y="166.6" class="st0" width="48" height="8" />
      </g>
      <g id="octave_2_">
        <rect x="200" y="286.8" class="st0" width="48" height="8" />
        <rect x="200" y="303" class="st0" width="48" height="8" />
      </g>
    </g>
    <line id="front_x5F_border" class="st1" x1="178" y1="89.8" x2="178" y2="310.8" />
    <line id="top_x5F_border" class="st2" x1="176.1" y1="58" x2="256.1" y2="58" />
    <line id="back_x5F_border" class="st3" x1="262" y1="34" x2="262" y2="312" />
  </g>
  <g id="guitar">
    <path id="body" class="st0" d="M158.3,312c-5.7-12.4-20-22.2-38-26v4.4c0,3.7-3.1,6.7-7,6.7H94.7c-3.9,0-7-3-7-6.7V286
		c-18,3.7-32.2,13.5-38,26H158.3z" />
    <g id="head">
      <path class="st0" d="M112.1,171H95.9c-6.6,0-11.9-5.3-11.9-11.9v-40.2c0-6.6,5.3-11.9,11.9-11.9h16.2c6.6,0,11.9,5.3,11.9,11.9
			v40.2C124,165.7,118.7,171,112.1,171z" />
      <g>
        <circle class="st0" cx="130" cy="120" r="4" />
        <circle class="st0" cx="130" cy="136" r="4" />
        <circle class="st0" cx="130" cy="152" r="4" />
      </g>
      <g>
        <circle class="st0" cx="78" cy="120" r="4" />
        <circle class="st0" cx="78" cy="136" r="4" />
        <circle class="st0" cx="78" cy="152" r="4" />
      </g>
    </g>
    <path id="neck_1_" class="st0"
      d="M112.8,295H95.2c-2.9,0-5.2-2.3-5.2-5.2V167h28v122.8C118,292.7,115.7,295,112.8,295z" />
  </g>
</svg>
