<?xml version="1.0" encoding="utf-8"?>
<!-- Generator: Adobe Illustrator 25.0.1, SVG Export Plug-In . SVG Version: 6.00 Build 0)  -->
<svg version="1.1" xmlns="http://www.w3.org/2000/svg" xmlns:xlink="http://www.w3.org/1999/xlink" x="0px" y="0px"
  viewBox="0 0 144 144" style="enable-background:new 0 0 144 144;" xml:space="preserve">
  <style type="text/css">
    .st0 {
      fill: #E8E8E8;
    }
  </style>
  <g id="Слой_2">
  </g>
  <g id="Слой_3">
    <path class="st0" d="M128,53.4V10.1l-26.6,15.3C92.7,20.7,82.6,18,72,18s-20.7,2.7-29.4,7.4L16,10.1v43.3c-3.8,8.1-6,17.1-6,26.6
		c0,34.2,27.8,62,62,62s62-27.8,62-62C134,70.5,131.8,61.4,128,53.4z M72,130c-11,0-20-9-20-20c0-11,9-20,20-20s20,9,20,20
		C92,121,83,130,72,130z M104.5,73.7c-2.1,0.6-4.5-1-5.2-3.7c-0.3-1.2-0.3-2.4,0.1-3.4l-8.3-28.9h-4.9l4.4,35.9
		c0.7,0.8,1.2,1.9,1.4,3.1c0.3,2.7-1.2,5.2-3.4,5.5c-2.2,0.3-4.2-1.7-4.6-4.5c-0.2-1.3,0.1-2.4,0.6-3.4l-4.5-36.6H75v40.8
		c0.6,0.9,1,2,1,3.3c0,2.8-1.8,5-4,5s-4-2.2-4-5c0-1.3,0.4-2.4,1-3.3V37.6h-5.4l-4.5,36.6c0.5,0.9,0.7,2.1,0.6,3.4
		c-0.3,2.7-2.4,4.7-4.6,4.5s-3.7-2.7-3.4-5.5c0.2-1.3,0.7-2.3,1.4-3.1l4.4-35.9h-5.3L44,66.3c0.3,1,0.4,2.2,0.1,3.4
		c-0.8,2.7-3.1,4.3-5.2,3.7c-2.1-0.6-3.2-3.3-2.5-5.9c0.3-1.2,1-2.2,1.9-2.9L46,37.6h-6v-6h64v6h-6.7l7.8,27.3
		c0.8,0.7,1.5,1.7,1.9,2.9C107.7,70.4,106.6,73.1,104.5,73.7z" />
  </g>
</svg>
