<?xml version="1.0" encoding="utf-8"?>
<svg version="1.1" xmlns="http://www.w3.org/2000/svg" xmlns:xlink="http://www.w3.org/1999/xlink" x="0px" y="0px"
  viewBox="0 0 144 144" style="enable-background:new 0 0 144 144;" xml:space="preserve">
  <g fill="#E8E8E8">
    <polygon points="73.3,46 73.3,33.2 70.8,33.2 69.9,46 	" />
    <polygon points="65.9,46 66.8,33.2 65.1,33.2 63.1,46 	" />
    <polygon points="51.3,46 54,33.2 51.6,33.2 48.1,46 	" />
    <polygon points="59,46 61,33.2 58.1,33.2 55.4,46 	" />
    <polygon points="95.7,46 93.2,33.2 90.2,33.2 92,46 	" />
    <polygon points="80.6,46 79.5,33.2 77.3,33.2 77.3,46 	" />
    <polygon points="87.9,46 86.1,33.2 83.5,33.2 84.6,46 	" />
    <path d="M47.5,54c-0.5,0.6-1.1,1-1.8,1.4l-2.4,8.8h4.2L49.6,54H47.5z" />
    <path d="M96.5,54h-3.4l1.4,10.2h4.7l-1.8-9.4C97.1,54.6,96.8,54.3,96.5,54z" />
    <polygon points="53.7,54 51.5,64.2 56.1,64.2 57.7,54 	" />
    <path d="M108.5,16.7c0,0-4.4-11.2-9.5-14.5S88.1,5.9,88.1,5.9s-5.9,6.4-13.7,6.5c-1.4,0-3,0-4.8,0
		c-7.8,0-13.7-6.5-13.7-6.5S50-1.2,45,2.2s-9.5,14.5-9.5,14.5s-21.6,51.8-12.6,89s48.5,37,48.5,37s40.7,0.2,49.7-37
		S108.5,16.7,108.5,16.7z M72,17c1.7,0,3,1.3,3,3s-1.3,3-3,3s-3-1.3-3-3S70.3,17,72,17z M110.9,103.4c0.1,0.7-0.3,1.4-1,1.5
		l-1.3,0.3c-0.7,0.1-1.4-0.3-1.5-1l-6.6-34h-5l5.8,41.5c0.1,0.7-0.4,1.4-1.1,1.5l-1.4,0.2c-0.7,0.1-1.4-0.4-1.5-1.1l-5.9-42h-4.6
		l4.3,49.1c0.1,0.7-0.5,1.4-1.2,1.4l-1.4,0.1c-0.7,0.1-1.4-0.5-1.4-1.2l-4.3-49.4h-5.4v57.5c0,0.7-0.6,1.3-1.3,1.3h-1.4
		c-0.7,0-1.3-0.6-1.3-1.3V70.2h-5.1l-3.8,54.2c-0.1,0.7-0.7,1.3-1.4,1.2l-1.4-0.1c-0.7-0.1-1.3-0.7-1.2-1.4l3.8-53.9h-5L51.3,120
		c-0.1,0.7-0.8,1.2-1.5,1.1l-1.4-0.2c-0.7-0.1-1.2-0.8-1.1-1.5l7.8-49.1h-4.9l-8.7,40.7c-0.2,0.7-0.8,1.2-1.6,1l-1.3-0.3
		c-0.7-0.2-1.2-0.8-1-1.6l8.5-39.9h-4.5l-8.7,32.5c-0.2,0.7-0.9,1.1-1.6,0.9l-1.3-0.4c-0.7-0.2-1.1-0.9-0.9-1.6l8.4-31.5h-2.9
		c-1.7,0-3-1.3-3-3s1.3-3,3-3h4.5l2.3-8.4c-1.1-0.3-2.1-0.9-2.8-1.8h-2.4c-1.4,0-2.5-1.1-2.5-2.5v-3c0-1.4,1.1-2.5,2.5-2.5h2.4
		c1.1-1.2,2.7-2,4.5-2c0.5,0,1,0.1,1.5,0.2l2.9-11h-6.2c-0.9,0-1.6-0.7-1.6-1.6v-0.8c0-0.9,0.7-1.6,1.6-1.6h7.3l0.6-2.3
		c0.2-0.7,0.9-1.1,1.6-0.9l1.3,0.4c0.7,0.2,1.1,0.9,0.9,1.6l-0.3,1.2h2.2l0.6-2.6c0.2-0.7,0.8-1.2,1.6-1l1.3,0.3
		c0.7,0.2,1.2,0.8,1,1.6L59,29.2h2.7l0.3-2.1c0.1-0.7,0.8-1.2,1.5-1.1l1.4,0.2c0.7,0.1,1.2,0.8,1.1,1.5l-0.2,1.5h1.3l0.2-2.2
		c0.1-0.7,0.7-1.3,1.4-1.2l1.4,0.1c0.7,0.1,1.3,0.7,1.2,1.4l-0.1,1.9h2.2v-2.9c0-0.7,0.6-1.3,1.3-1.3H76c0.7,0,1.3,0.6,1.3,1.3v2.9
		h1.8l-0.2-2.6c-0.1-0.7,0.5-1.4,1.2-1.4l1.4-0.1c0.7-0.1,1.4,0.5,1.4,1.2l0.3,2.9h2.4l-0.2-1.5c-0.1-0.7,0.4-1.4,1.1-1.5l1.4-0.2
		c0.7-0.1,1.4,0.4,1.5,1.1l0.3,2.1h2.8l-0.2-1c-0.1-0.7,0.3-1.4,1-1.5l1.3-0.3c0.7-0.1,1.4,0.3,1.5,1l0.3,1.7h5.5
		c0.9,0,1.6,0.7,1.6,1.6v0.8c0,0.9-0.7,1.6-1.6,1.6h-4.7l2.1,11c0.5-0.1,1-0.2,1.6-0.2c1.8,0,3.4,0.8,4.5,2h1.6
		c1.4,0,2.5,1.1,2.5,2.5v3c0,1.4-1.1,2.5-2.5,2.5h-1.6c-0.9,1.1-2.3,1.8-3.8,2l1.6,8.3h5.3c1.7,0,3,1.3,3,3s-1.3,3-3,3h-4.1
		L110.9,103.4z" />
    <polygon points="85.3,54 86.2,64.2 90.5,64.2 89.1,54 	" />
    <polygon points="77.3,54 77.3,64.2 82.2,64.2 81.3,54 	" />
    <polygon points="61.8,54 60.2,64.2 64.6,64.2 65.3,54 	" />
    <polygon points="69.3,54 68.6,64.2 73.3,64.2 73.3,54 	" />
  </g>
</svg>
