<?xml version="1.0" encoding="utf-8"?>
<!-- Generator: Adobe Illustrator 25.0.1, SVG Export Plug-In . SVG Version: 6.00 Build 0)  -->
<svg version="1.1" id="Слой_3" xmlns="http://www.w3.org/2000/svg" xmlns:xlink="http://www.w3.org/1999/xlink" x="0px"
  y="0px" viewBox="0 0 144 144" style="enable-background:new 0 0 144 144;" xml:space="preserve">
  <style type="text/css">
    .st0 {
      fill: #E8E8E8;
    }
  </style>
  <g id="bottom_x5F_bridge">
    <circle class="st0" cx="52.2" cy="133.4" r="2" />
    <circle class="st0" cx="74" cy="137.7" r="2" />
    <circle class="st0" cx="61.5" cy="136.5" r="2" />
    <circle class="st0" cx="85.8" cy="136.7" r="2" />
    <circle class="st0" cx="97.5" cy="133.4" r="2" />
  </g>
  <g>
    <path class="st0" d="M65.9,116.4c0,0,3.6,1.1,8.4,2.1l3.8-56.7c-4.3-0.5-9.9,0.1-9.9,0.1s-2.9,0.5-6.2,1.3l0.2,52.6
		C64.7,116.1,65.9,116.4,65.9,116.4z" />
    <path class="st0" d="M60.3,133.3l-0.1-13.4c-2.1-0.2-5.2-0.3-8.6,0.3l1.2,10.7C54.4,131.5,57,132.4,60.3,133.3z" />
    <path class="st0" d="M60.2,115.6L60,63.7c-3.9,1-8.5,0.5-10.3-0.3c-1.2-0.5-3.2-1.1-4.9-3.5l6.4,55.9c1.6-0.2,3.2-0.4,4.9-0.4
		C57.6,115.5,59,115.6,60.2,115.6z" />
    <path class="st0" d="M86.9,120.1l7.2-54.9c-1.3,0.1-2-0.1-2-0.1s-6.9-0.7-10.7-2.5c-0.4-0.2-0.9-0.3-1.4-0.5l-3.8,56.8
		C79.7,119.6,83.5,120.1,86.9,120.1z" />
    <path class="st0"
      d="M88.3,124.9l-1.2,8.8c3.8-0.8,7-1.8,10-3l1.4-7.4c-1,0.3-2.1,0.6-3.1,0.8C93.1,124.7,90.6,124.9,88.3,124.9z" />
    <path class="st0"
      d="M74,122.8c-0.2,0-0.2-0.1-0.2-0.1l-10.2-2.3c0,0-0.5-0.1-1.3-0.3l0.1,13.6c3.3,0.7,7,1.3,10.9,1.2L74,122.8z" />
    <path class="st0" d="M86.3,124.9c-4.3-0.2-8.1-0.9-10.3-1.5L75.2,135c3.8-0.1,7-0.4,9.9-0.9L86.3,124.9z" />
  </g>
  <g>
    <path class="st0" d="M125.8,64.3c-1.6-13.4-7.3-26.9-7.3-26.9S111,20.3,94.6,9.7c-16.4-10.6-43.5-9.2-51-8.2
		c-7.5,1-11.6,4.6-13.9,7.3c-2.3,2.7-3.6,10.8-2.3,15.4S30.9,42,30.9,42s0.7,11.2,0.5,16.3c-0.2,5.1-1.9,11.5-1.9,11.5
		s-1.3,8.1-2.2,20.2s2.6,23.7,2.6,23.7s2.4,8.6,8.6,14.4c6.2,5.8,6.5,6.1,14.6,10.5C61,143,74.5,143,74.5,143s12.5-0.8,19.8-3.2
		c7.3-2.4,14.8-9,14.8-9s8.6-8.3,12.7-17.8c4.1-9.5,4.8-21.7,4.8-21.7S127.4,77.7,125.8,64.3z M115.8,49.9c-0.3,0-0.6-0.1-0.9-0.2
		l-13.2,67.8c3.1-1.2,6.1-2.7,9.1-4.3c0,0,2,1.7,2.2,3.8c0,0-5,3.2-12.4,5.7l-1.4,7.4c4.3-1,3.6,2.6,3.6,2.6s-0.1,1-1.1,1.8
		c0,0-5.7,2.6-8.6,3.3c-2.9,0.7-2.9,0.7-2.9,0.7s-9.1,2.4-18,1.9c-8.8-0.5-17.9-2.3-22.2-5c-4.3-2.8-3.1-4.6-1.7-5.4
		c0.9-0.6,1.9-0.3,2.4,0l-1.1-9.3c-1.8,0.4-3.7,1-5.6,1.9c0,0-1.4-1.8-1.2-4.5c0,0,2.6-1,6.3-1.7l-7.3-63.1
		c-0.5-2.7-0.9-6.3-1.1-9.9l-3.6-31.7C37,11.3,37,11,37,10.8c0-1.4,1.1-2.5,2.5-2.5c1.4,0,2.5,1.1,2.5,2.5c0,1.4-1.1,2.5-2.5,2.5
		c-0.1,0-0.1,0-0.2,0l1.6,13.9c0.5-1.3,1.4-3,3.1-4.6c3.7-3.6,7.7-4.2,7.7-4.2s3.2-0.7,8.1-0.9l0-9c-0.2-0.3-0.3-0.7-0.3-1.2
		c0-1.4,1.1-2.5,2.5-2.5c1.4,0,2.5,1.1,2.5,2.5c0,1.4-1.1,2.5-2.5,2.5c-0.1,0-0.1,0-0.2,0l0,7.6c5.3-0.1,12.1,0.4,19.1,2.5l0.5-7.8
		c-0.1-0.2-0.1-0.4-0.1-0.6c0-1.4,1.1-2.5,2.5-2.5c1.4,0,2.5,1.1,2.5,2.5S85.2,14,83.8,14c-0.2,0-0.4,0-0.5-0.1l-0.4,6.6
		c1.4,0.5,2.8,1,4.2,1.7c5.2,2.3,9,5.1,11.8,7.7l0.9-6.7c0-0.2-0.1-0.3-0.1-0.5c0-1.4,1.1-2.5,2.5-2.5s2.5,1.1,2.5,2.5
		c0,1.4-1.1,2.5-2.5,2.5c-0.2,0-0.5,0-0.7-0.1l-0.9,6.6c5,5.4,6.1,10,6.1,10s3.2,11.2-2.5,17.9c-2.8,3.2-5.7,4.6-7.9,5.2l-7.3,55.2
		c3.9-0.2,7.4-0.8,10.6-1.9l13.8-70.8c0,0,0,0,0,0c0-1.4,1.1-2.5,2.5-2.5s2.5,1.1,2.5,2.5S117.2,49.9,115.8,49.9z" />
    <path class="st0" d="M113.4,48.1C113.4,48.1,113.4,48.1,113.4,48.1C113.4,48.1,113.4,48.1,113.4,48.1z" />
    <path class="st0" d="M82.6,13.7C82.6,13.7,82.6,13.7,82.6,13.7C82.6,13.7,82.6,13.7,82.6,13.7z" />
    <path class="st0" d="M114.6,49.5C114.6,49.5,114.6,49.5,114.6,49.5C114.6,49.5,114.6,49.5,114.6,49.5z" />
    <path class="st0" d="M114.3,49.3C114.3,49.3,114.3,49.3,114.3,49.3C114.3,49.3,114.3,49.3,114.3,49.3z" />
  </g>
  <g id="white-strings">
    <g>
      <path class="st0" d="M44.7,60l-3.8-32.8c-0.6,1.6-0.6,2.8-0.6,2.8s0,6.6,0.5,13.3l1.1,9.9c0.1,0.5,0.2,1,0.3,1.4
			C42.9,57,43.8,58.7,44.7,60z" />
      <path class="st0" d="M51.6,120.1l-0.5-4.2c-0.7,0.1-1.3,0.2-2,0.3l0.5,4.3C50.3,120.4,51,120.2,51.6,120.1z" />
      <path class="st0" d="M50.7,129.9l0.5,4.2l2-0.2l-0.3-3c-1-0.4-1.6-0.7-1.6-0.7S51,130,50.7,129.9z" />
    </g>
    <g>
      <path class="st0" d="M60.2,119.9c0.8,0.1,1.5,0.2,2,0.3l0-4.3c-0.6-0.1-1.3-0.1-2-0.2L60.2,119.9z" />
      <path class="st0" d="M60.3,135.9l2,0l0-2.1c-0.7-0.2-1.4-0.3-2-0.5L60.3,135.9z" />
      <path class="st0"
        d="M60,63.7c0.6-0.2,1.3-0.3,1.9-0.5l-0.2-45.9c-0.7,0-1.4,0-2,0.1L60,63.7C60,63.7,60,63.7,60,63.7z" />
    </g>
    <g>
      <path class="st0" d="M76.3,118.9c-0.7-0.1-1.3-0.3-2-0.4l-0.3,4.3c0.3,0.1,1,0.3,2,0.5L76.3,118.9z" />
      <path class="st0" d="M80,62.2l2.8-41.7c-0.7-0.2-1.3-0.4-2-0.6l-2.8,42C78.8,61.9,79.4,62,80,62.2z" />
      <path class="st0" d="M75.2,135c-0.6,0-1.2,0-1.8,0c-0.1,0-0.1,0-0.2,0l-0.2,3.3l2,0.1L75.2,135z" />
    </g>
    <g>
      <path class="st0" d="M84.7,137.1l2,0.3l0.5-3.7c-0.7,0.1-1.4,0.3-2.1,0.4L84.7,137.1z" />
      <path class="st0" d="M96.2,64.8l4.4-33.2c-0.5-0.6-1.1-1.2-1.8-1.8l-4.6,35.3C94.7,65.1,95.4,65,96.2,64.8z" />
      <path class="st0"
        d="M87.5,120.1c-0.2,0-0.4,0-0.6,0l-0.6,4.8c0.7,0,1.3,0,2,0l0.6-4.8C88.5,120.1,88,120.1,87.5,120.1z" />
    </g>
    <g>
      <path class="st0" d="M99.6,118.2l-1,5.1c0.7-0.2,1.5-0.4,2.2-0.7l1-5.2C101,117.7,100.3,118,99.6,118.2z" />
      <path class="st0" d="M98.5,133.9l0.7-3.9c-0.5,0.1-1,0.3-1.6,0.5c-0.2,0.1-0.4,0.1-0.5,0.2l-0.5,2.8L98.5,133.9z" />
    </g>
  </g>
</svg>
