<?xml version="1.0" encoding="iso-8859-1"?>
<svg version="1.1" xmlns="http://www.w3.org/2000/svg" xmlns:xlink="http://www.w3.org/1999/xlink" viewBox="0 0 600 600"
  style="enable-background:new 0 0 600 600;" xml:space="preserve">
  <g fill="#E8E8E8">
    <path
      d="M 362.677 125.949 c -54.653 -52.945 -55.54 -116.791 -55.54 -117.414 c 0 -4.712 -3.824 -8.535 -8.535 -8.535 c -4.712 0 -8.535 3.824 -8.535 8.535 v 94.71 v 354.755 c -25.777 -26.144 -76.409 -31.3 -123.611 -9.867 c -32.648 14.835 -58.101 40.006 -68.096 67.345 c -6.521 17.848 -6.137 35.32 1.093 50.53 c 12.052 25.342 41.286 39.186 75.394 39.186 c 19.06 0 39.647 -4.327 59.595 -13.384 c 32.648 -14.835 58.109 -40.006 68.096 -67.345 c 4.114 -11.267 4.609 -22.662 4.609 -34.466 c 0 -6.402 0 -12.795 0 -19.196 c 0 -9.141 0 -18.283 0 -27.416 c 0 -10.917 0 -21.825 0 -32.742 c 0 -11.719 0 -23.438 0 -35.166 c 0 -11.566 0 -23.123 0 -34.688 c 0 -10.439 0 -20.869 0 -31.308 c 0 -8.348 0 -16.687 0.853 -116.483 c 0 -5.283 0 -10.567 0 -15.859 c 0 -1.374 4.853 -96.589 0 -4.131 c 8.988 19.666 22.628 41.278 43.667 61.66 c 43.335 41.977 49.583 66.449 50.257 75.027 c 0.35 4.456 4.071 7.861 8.501 7.861 c 0.111 0 0.222 0 0.341 -0.008 c 4.584 -0.179 8.194 -3.943 8.194 -8.527 v -84.825 C 418.815 215.811 419.344 180.841 362.677 125.949 z" />
  </g>
</svg>
