<svg version="1.1" xmlns="http://www.w3.org/2000/svg" xmlns:xlink="http://www.w3.org/1999/xlink" x="0px" y="0px"
  width="64" height="512" viewBox="0 0 64 512" style="enable-background:new 0 0 64 512;" xml:space="preserve">
  <g class="flute">
    <g id="bottom" [attr.fill]="whoInScale(note) | stagecolor:'inherit'">
      <path class="st0" d="M45.7,505.4h-30c0,0-14.2-30.4-5.9-60.8h24.5L45.7,505.4z" />
      <path class="st0" d="M18.3,505.4h30c0,0,14.2-30.4,5.9-60.8H29.7L18.3,505.4z" />
      <text class="notename" x="32" y="480">
        {{note | notename }}
      </text>
    </g>
    <g id="body">
      <path class="st0" d="M22.4,441.5H10.6c0,0,5.5-41.3,1.9-92.4c0,0-1.8-0.5-1.8-2.3c0-1.9,1.4-2.2,1.4-2.2s0.1-10.3-0.8-17.3
			c0,0-1.9-0.4-1.9-2.5c-0.1-2.2,2.3-2.2,2.3-2.2h21.8v113.8h-8.8l-2.2-15.5L22.4,441.5z" />
      <path class="st0" d="M41.6,441.5h11.8c0,0-5.5-41.3-1.9-92.4c0,0,1.8-0.5,1.8-2.3c0-1.9-1.4-2.2-1.4-2.2s-0.1-10.3,0.8-17.3
			c0,0,1.9-0.4,1.9-2.5c0.1-2.2-2.3-2.2-2.3-2.2H30.4v113.8h8.8l2.2-15.5L41.6,441.5z" />
      <text class="stagename" x="32" y="400">
        {{ getStage(note) }}
      </text>
    </g>
    <g id="neck">
      <path class="st0"
        d="M32.9,319.1H13.7c0,0,3.9-104.8,2.2-219.7c0,0-1.9-1.1-1.9-3.6c-0.1-2.5,1.9-2.9,1.9-2.9h17.3L32.9,319.1z" />
      <path class="st0"
        d="M31.1,319.1h19.2c0,0-3.9-104.8-2.2-219.7c0,0,1.9-1.1,1.9-3.6c0.1-2.5-1.9-2.9-1.9-2.9H30.7L31.1,319.1z" />
    </g>
    <g id="top">
      <path class="st0" d="M32.9,90.3H15.5c0,0-4.5-22-2-32.1s4.9-7.8-0.7-46.8c0,0-2.9-0.8-3-4.9s3-4.7,3-4.7h20.3" />
      <path class="st0"
        d="M30.1,90.3h17.4c0,0,4.5-22,2-32.1s-5-7.8,0.7-46.8c0,0,2.9-0.8,3-4.9c0-4.1-3-4.7-3-4.7H29.9" />
    </g>
  </g>
  <g class="holes">
    <circle cx="16" [attr.fill]="getHoleColor(0)" cy="303" r="8" />
    <circle cx="32" [attr.fill]="getHoleColor(1)" cy="283" r="5" />
    <circle cx="32" [attr.fill]="getHoleColor(2)" cy="249" r="5" />
    <circle cx="32" [attr.fill]="getHoleColor(3)" cy="216" r="5" />
    <circle cx="32" [attr.fill]="getHoleColor(4)" cy="179" r="4" />
    <circle cx="32" [attr.fill]="getHoleColor(5)" cy="144" r="4" />
    <circle cx="37" [attr.fill]="getHoleColor(6)" cy="114" r="3.5" />
    <circle cx="28" [attr.fill]="getHoleColor(7)" cy="112" r="3" />
    <ellipse cx="42" [attr.fill]="getHoleColor(8)" cy="78" rx="3.5" ry="4" />
    <ellipse cx="32" [attr.fill]="getHoleColor(9)" cy="76" rx="3" ry="3.5" />
  </g>
  <linearGradient id="halfclosed-gradient">
    <stop offset="50%" stop-color="var(--main-color)" />
    <stop offset="50%" stop-color="black" />
  </linearGradient>
</svg>
